<svg xmlns="http://www.w3.org/2000/svg" width="256" height="256" viewBox="0 0 256 256"><path fill="#41D1FF" d="M208.4 47.6c-15.4-15.4-35.9-23.8-57.6-23.8H72c-4.4 0-8 3.6-8 8v192c0 4.4 3.6 8 8 8h112c4.4 0 8-3.6 8-8V104c0-21.7 8.4-42.2 23.8-57.6z"/><path fill="#33A9E0" d="M208.4 47.6L152 104H72V24h78.4c21.7 0 42.2 8.4 57.6 23.6z"/><path fill="#FFF" d="M128 176c-17.7 0-32-14.3-32-32s14.3-32 32-32 32 14.3 32 32-14.3 32-32 32zm0-48c-8.8 0-16 7.2-16 16s7.2 16 16 16 16-7.2 16-16-7.2-16-16-16z"/></svg>
